PathFileType	4	(X/Y/Z)	C:/Users/beibeiliu/ov580/test_trc/capture2\sequence.31_training_dense_left.trc
DataRate	CameraRate	NumFrames	NumMarkers	Units	OrigDataRate	OrigDataStartFrame	OrigNumFrames
120	120	21	19	mm	120	101	400
Frame#	Time	ThumbCMC			ThumbMCP			ThumbIP			ThumbTip			IndexMCP			IndexPIP			IndexTip			MiddleMCP			MiddlePIP			MiddleTip			RingMCP			RingPIP			RingTip			PinkyMCP			PinkyPIP			PinkyTip			BackHand1			BackHand2			BackHand3	
		X0	Y0	Z0	X1	Y1	Z1	X2	Y2	Z2	X3	Y3	Z3	X4	Y4	Z4	X5	Y5	Z5	X6	Y6	Z6	X7	Y7	Z7	X8	Y8	Z8	X9	Y9	Z9	X10	Y10	Z10	X11	Y11	Z11	X12	Y12	Z12	X13	Y13	Z13	X14	Y14	Z14	X15	Y15	Z15	X16	Y16	Z16	X17	Y17	Z17	X18	Y18	Z18	
100	0.833333	-124.789	22.3653	29.3733	-94.6842	25.7918	7.16704	-80.1804	22.1363	-13.569	-71.5898	7.4609	-34.7086	-128.643	8.06616	-44.5298	-102.744	3.10921	-59.3012	-79.1926	1.9515	-31.0017	-117.481	-15.8402	-46.9349	-87.7146	-15.1479	-43.403	-86.236	-4.44452	-6.30204	-115.932	-32.302	-36.1025	-86.4007	-27.8566	-29.2857	-89.8484	-15.5245	4.65533	-115.449	-50.3096	-23.8536	-89.1254	-38.9297	-18.499	-94.1077	-22.186	9.18909	-156.203	-30.0654	4.27262	-161.337	-23.3342	37.5949	-156.533	6.27912	17.0763	
101	0.841667	-123.558	24.4899	22.2974	-97.0485	22.2906	7.20498	-82.4859	18.6292	-16.0576	-73.9769	5.68718	-36.101	-128.957	8.12098	-46.5331	-103.519	4.21407	-60.8343	-79.6748	1.27493	-31.2742	-120.796	-14.5186	-44.6178	-86.8525	-16.0228	-40.727	-87.1468	-9.13841	-7.10269	-115.234	-31.8145	-37.9655	-84.4387	-28.7277	-26.0207	-89.9787	-15.8131	3.03778	-116.137	-49.4783	-24.8019	-90.3039	-38.7834	-20.0296	-95.6999	-21.9612	10.118	-157.242	-28.4379	4.2259	-160.016	-25.4994	32.8107	-158.17	7.20062	12.3173	
102	0.85	-123.853	26.3495	20.8723	-95.8915	25.3661	1.78117	-81.7102	20.0619	-18.0359	-73.8488	4.38613	-37.9912	-128.801	8.37879	-50.8433	-101.683	3.81791	-61.8447	-81.2744	1.09235	-36.2004	-119.287	-17.029	-47.4283	-87.6644	-12.1595	-44.5635	-87.056	-6.29637	-8.05966	-115.099	-34.6009	-36.8502	-85.6306	-26.2798	-27.7812	-91.0902	-15.6339	3.3712	-117.376	-46.6485	-23.996	-89.8214	-35.4026	-18.5889	-96.9058	-21.6212	10.4954	-156.088	-29.6102	3.12296	-160.127	-21.2292	31.6737	-158.353	4.49655	12.0065	
103	0.858333	-124.033	23.2431	20.6992	-97.659	24.4969	2.84086	-80.6576	22.2954	-19.797	-74.0396	5.31026	-40.8636	-130.668	5.06637	-49.7968	-101.941	1.00568	-62.1859	-81.2806	4.18548	-35.4924	-120.219	-15.6606	-47.6936	-87.4373	-14.5593	-43.4141	-85.8787	-5.38448	-11.6578	-115.299	-31.0145	-38.6915	-86.5591	-25.6945	-30.0983	-93.0682	-13.2817	2.35272	-115.789	-46.3871	-26.3981	-89.6793	-34.1878	-18.9298	-97.6067	-18.0053	9.39864	-154.693	-28.7042	2.68211	-159.637	-21.6791	31.483	-157.37	4.4211	12.2166	
104	0.866667	-124.645	25.0276	22.4294	-97.8885	24.0349	0.244635	-80.9609	21.8527	-22.0033	-74.8743	4.47256	-44.4223	-131.166	6.36391	-50.462	-101.76	0.203651	-61.874	-81.791	2.75395	-34.1897	-120.725	-16.842	-47.4599	-88.8265	-14.4268	-46.1158	-88.6847	-3.11507	-9.14918	-113.087	-32.6735	-40.5511	-87.0296	-26.3258	-32.2055	-92.5653	-11.5829	0.17411	-118.545	-45.9662	-24.2471	-90.1027	-35.3958	-20.4614	-94.7922	-20.5226	8.84268	-156.787	-29.6039	2.51848	-162.175	-23.7997	36.3423	-156.361	8.50455	14.2735	
105	0.875	-124.901	24.8476	18.8208	-97.1534	25.5905	1.58665	-84.1146	19.1213	-22.6372	-76.0033	8.35197	-39.1769	-130.663	9.05638	-50.2283	-105.506	-0.0394628	-63.3112	-81.0735	6.0231	-36.2065	-121.538	-11.0787	-48.7464	-89.9166	-13.0186	-48.2918	-85.982	-2.16362	-11.8339	-118.224	-30.7372	-37.7404	-85.9004	-23.1389	-30.8747	-92.5873	-10.6043	1.78758	-116.202	-47.896	-25.5345	-88.8313	-37.5397	-20.774	-94.0709	-18.4235	3.45197	-155.96	-23.9458	3.11486	-161.33	-19.336	35.0367	-155.777	4.97431	10.7344	
106	0.883333	-122.985	30.209	20.076	-94.8828	29.8753	2.84635	-82.0478	21.7971	-23.162	-75.8009	4.22153	-43.6329	-129.174	8.02522	-52.8658	-102.451	2.62742	-64.1378	-82.0004	5.44881	-37.5262	-119.123	-13.3274	-50.9864	-89.5836	-12.8706	-47.5575	-86.3843	-4.8785	-9.98654	-117.456	-29.6996	-38.5515	-86.8073	-27.5242	-31.3769	-89.5273	-14.6136	-0.53305	-114.495	-43.702	-28.4069	-87.6213	-38.7842	-19.4662	-95.5733	-19.0343	9.24559	-154.396	-26.6373	1.84834	-160.241	-19.4422	35.7659	-155.912	10.6945	13.0095	
107	0.891667	-122.89	27.4311	21.8451	-95.7308	26.8082	-1.62415	-82.7764	21.8865	-21.4298	-75.3885	6.80595	-43.3946	-130.475	10.3759	-49.994	-102.743	2.21148	-63.976	-82.4557	3.83422	-36.4371	-118.161	-13.5125	-50.2886	-87.3343	-11.9742	-45.7788	-84.6398	-6.02014	-12.9529	-114.839	-31.4254	-38.9946	-85.3307	-29.9623	-31.2869	-89.2404	-11.7857	-0.952595	-115.558	-44.9919	-27.9864	-89.3891	-37.1326	-21.034	-94.915	-18.673	5.37477	-155.052	-27.5656	2.5518	-159.54	-19.4798	35.2242	-157.588	9.79055	11.4517	
108	0.9	-123.304	28.2713	21.7968	-97.3652	25.4034	0.568883	-82.0712	23.9426	-21.8703	-74.8415	9.62803	-40.0336	-129.949	10.368	-50.3389	-102.053	3.28085	-63.8838	-80.8485	8.82668	-35.7237	-118.161	-10.9168	-51.0237	-86.306	-11.654	-44.1756	-85.9846	-1.98284	-10.6978	-112.044	-31.6514	-40.4274	-85.0504	-28.7794	-30.8786	-90.5755	-12.5756	0.130188	-114.252	-45.3661	-26.798	-87.0289	-36.2449	-17.2877	-93.0566	-17.7365	5.13054	-155.352	-24.5154	2.3141	-160.651	-18.7576	32.5227	-154.912	8.06806	10.9769	
109	0.908333	-122.946	27.026	19.6792	-94.9119	29.957	1.57546	-81.7903	22.9018	-19.9946	-74.8791	7.98051	-41.9657	-128.05	7.63021	-50.4204	-103.804	3.77139	-63.3023	-81.331	6.31291	-39.0615	-121.175	-11.3299	-46.6692	-86.6501	-12.2426	-45.7635	-84.8881	-6.89124	-11.7085	-114.115	-30.3134	-39.2306	-84.773	-25.6966	-27.9413	-88.717	-15.2709	0.49744	-113.546	-46.4895	-27.0489	-88.6141	-33.395	-18.5	-94.9815	-18.9306	9.45851	-155.107	-25.3233	6.07645	-161.808	-17.9064	35.2309	-156.737	10.279	14.334	
110	0.916667	-122.397	29.0646	24.3536	-93.9859	28.6105	0.328707	-81.6656	22.2849	-20.9844	-77.2807	6.38885	-39.444	-128.81	8.30103	-48.8019	-100.808	1.01503	-60.4493	-80.526	4.31255	-38.2196	-118.854	-11.6765	-48.3819	-86.9646	-14.8696	-44.6064	-86.1805	-3.68748	-7.57735	-114.863	-29.4119	-38.5103	-85.4477	-27.1716	-29.5081	-89.0484	-15.5495	2.50313	-114.943	-44.3895	-25.425	-89.2043	-35.6781	-17.4959	-96.1528	-19.7083	6.9725	-154.871	-26.7584	6.48436	-160.807	-20.3467	36.4749	-156.747	10.6789	14.5534	
111	0.925	-122.87	27.4304	23.3056	-96.1674	26.972	6.79131	-82.3294	23.7883	-17.4578	-74.123	10.8347	-38.4143	-128.496	8.43915	-48.5076	-102.478	0.757138	-61.9168	-81.2295	3.76972	-34.1001	-119.181	-11.1022	-48.9417	-88.5925	-16.1716	-45.2549	-86.0485	-6.59188	-7.79254	-114.008	-32.3385	-36.8824	-84.7664	-29.5807	-28.2141	-88.8477	-15.8469	2.28838	-117.039	-48.5166	-22.9499	-87.6565	-39.6414	-16.7208	-96.3068	-19.0279	12.852	-153.896	-25.0472	1.53078	-160.282	-18.5021	35.2804	-155.986	6.89577	16.2674	
112	0.933333	-122.91	29.6823	25.0278	-95.5048	27.5442	4.06399	-82.4913	23.227	-17.7656	-73.0618	9.87258	-39.2741	-128.887	9.13927	-47.9241	-99.6812	4.51101	-61.8496	-80.5532	5.69716	-32.3758	-121.031	-15.8692	-45.1765	-88.6665	-13.1206	-46.9318	-84.188	-5.38738	-11.1183	-112.665	-31.9836	-37.7343	-84.8896	-28.4894	-28.6407	-88.5529	-13.6894	1.07302	-112.786	-46.2366	-24.6602	-89.3436	-37.5899	-17.8423	-96.6941	-18.6285	9.8221	-154.528	-27.0863	6.10664	-159.72	-19.584	33.218	-157.076	7.36644	13.4246	
113	0.941667	-122.55	29.3394	21.6822	-97.1803	28.1579	6.23032	-81.2849	24.6182	-18.0315	-73.6323	9.21653	-39.9645	-129.102	8.55936	-46.8891	-99.466	2.73462	-61.0294	-80.6326	5.894	-33.2202	-117.175	-16.9111	-48.2227	-88.4052	-12.9403	-46.3002	-88.5305	-5.01442	-6.05219	-112.14	-30.9088	-38.6038	-85.8939	-26.2205	-28.84	-90.6408	-13.1694	4.96666	-114.995	-47.3037	-22.8	-86.5773	-37.0838	-13.5779	-96.657	-18.915	13.0502	-154.747	-23.9483	2.29672	-160.965	-23.1096	35.1676	-156.545	8.42629	15.9854	
114	0.95	-125.148	26.6384	26.0605	-97.3092	26.3517	2.19619	-83.1411	22.3107	-20.5769	-76.1627	7.52616	-36.4269	-130.757	8.71476	-47.9731	-101.627	3.58688	-61.3751	-82.396	1.84479	-36.4833	-120.252	-11.6647	-46.6014	-87.0163	-13.9592	-41.4558	-85.1624	-3.79173	-10.9231	-111.665	-33.4977	-38.2613	-86.4272	-27.447	-28.7905	-88.9257	-13.1195	2.18776	-117.517	-45.5215	-21.9992	-89.0029	-36.1507	-17.269	-94.9355	-20.5736	11.5171	-154.473	-26.6779	7.51669	-159.729	-24.4759	32.9045	-158.409	5.24079	16.5253	
115	0.958333	-125.228	25.3699	23.2752	-99.1565	26.5884	6.87252	-82.2643	23.1823	-20.2503	-76.9945	7.66564	-37.5791	-131.843	9.46069	-46.9039	-101.888	4.03129	-61.9828	-82.2799	5.72547	-38.8823	-120.198	-15.5549	-46.531	-87.5006	-15.9452	-40.4452	-86.9711	-4.23635	-10.4809	-116.324	-29.827	-35.7754	-84.3738	-24.2564	-25.065	-91.4226	-11.6386	2.65657	-114.468	-46.8279	-24.4316	-88.4527	-38.6818	-14.3281	-97.3321	-17.1425	9.81505	-154.756	-27.4734	4.99388	-161.153	-21.2276	33.9173	-156.828	9.75035	14.5472	
116	0.966667	-125.768	26.7803	25.9533	-98.1099	26.7052	1.74427	-83.5589	24.2525	-17.8334	-78.9004	5.38269	-38.0962	-131.247	8.06884	-45.769	-105.95	1.78893	-61.9854	-83.0985	5.67759	-36.3208	-122.268	-15.0405	-45.4338	-88.2691	-12.5714	-43.6275	-88.8897	-6.32596	-7.77435	-116.338	-31.9594	-35.4868	-85.593	-24.3066	-26.2865	-90.6946	-13.748	4.2519	-115.078	-44.4634	-24.293	-88.4753	-39.2751	-15.2218	-95.4521	-19.6789	11.934	-157.421	-23.8246	3.67674	-163.02	-24.01	34.3777	-159.335	9.30241	16.7008	
117	0.975	-124.778	28.4432	25.4592	-96.6256	30.1307	1.73037	-84.9312	24.58	-17.9366	-78.8893	8.3995	-37.5831	-130.783	6.82466	-48.5237	-103.11	5.27166	-61.2134	-83.9011	6.78343	-33.9734	-122.624	-14.2516	-45.6308	-90.4136	-15.8586	-43.8682	-88.2238	-7.60245	-9.10231	-115.537	-28.1615	-36.556	-87.7903	-24.9396	-30.0087	-92.3207	-12.5594	3.63264	-117.242	-47.2537	-22.3642	-89.0101	-37.4771	-14.7798	-95.696	-16.9482	10.9074	-156.127	-25.1863	2.18295	-161.04	-18.2739	37.1668	-158.321	5.61602	14.5256	
118	0.983333	-125.283	25.8	23.1835	-97.9166	27.9183	0.952162	-86.3807	21.7553	-20.2451	-75.8124	10.4542	-40.6285	-131.153	10.0095	-48.6586	-101.796	5.73793	-60.8262	-84.3142	6.40524	-34.2807	-122.087	-11.1828	-45.7742	-90.4556	-11.2704	-45.3453	-88.9941	-4.13091	-8.05391	-112.767	-32.0218	-37.763	-86.1788	-27.1764	-27.7251	-92.7916	-11.6586	5.68078	-116.826	-46.0273	-22.8568	-88.8836	-38.5187	-16.3204	-94.7209	-16.3605	9.22317	-157.587	-26.7101	5.35972	-161.893	-20.7726	36.8756	-157.621	10.304	17.4927	
119	0.991667	-125.068	25.9705	22.6655	-97.5157	29.8744	1.33917	-84.1354	24.1096	-21.8163	-76.9787	8.13589	-40.2028	-131.304	11.455	-45.6554	-103.885	5.55629	-61.421	-83.838	7.7001	-32.4578	-120.875	-13.8204	-46.9399	-87.4178	-12.2862	-41.6464	-89.4463	-2.10817	-5.31205	-114.48	-30.6949	-38.0212	-86.0556	-23.3021	-28.0411	-90.6814	-12.8906	3.62755	-116.054	-44.4929	-23.7004	-88.7836	-37.045	-14.9738	-96.6925	-15.4309	8.49493	-157.568	-26.3935	1.85518	-161.673	-22.0784	34.4936	-159.338	7.22914	17.576	
120	1	-124.877	29.8406	24.8886	-99.7542	27.3893	5.96221	-84.9964	22.4611	-18.7149	-77.9266	10.935	-35.9922	-130.344	8.40273	-48.7139	-104.483	3.61061	-60.1734	-82.9205	7.97365	-34.4269	-122.963	-13.6827	-44.008	-88.8101	-11.6425	-42.2484	-88.5257	-4.53569	-8.55582	-118.487	-28.1037	-35.5232	-87.5632	-25.3156	-29.4017	-92.0665	-12.3517	5.63238	-115.078	-42.1136	-24.6246	-89.0204	-32.6289	-15.9333	-92.4458	-18.3338	8.19097	-157.678	-26.0197	6.8106	-161.107	-21.1753	36.1391	-157.523	11.3371	13.1778	
